<?xml version="1.0" encoding="UTF-8"?>
<!DOCTYPE svg PUBLIC "-//W3C//DTD SVG 1.1//EN" "http://www.w3.org/Graphics/SVG/1.1/DTD/svg11.dtd">
<!-- Creator: CorelDRAW X6 -->
<svg xmlns="http://www.w3.org/2000/svg" xml:space="preserve" width="238px" height="65px" version="1.1" style="shape-rendering:geometricPrecision; text-rendering:geometricPrecision; image-rendering:optimizeQuality; fill-rule:evenodd; clip-rule:evenodd"
viewBox="0 0 238000 64999"
 xmlns:xlink="http://www.w3.org/1999/xlink">
 <defs>
  <style type="text/css">
   <![CDATA[
    .fil1 {fill:#4D4D4D;fill-rule:nonzero}
    .fil0 {fill:#AE2220;fill-rule:nonzero}
   ]]>
  </style>
 </defs>
 <g id="Слой_x0020_1">
  <metadata id="CorelCorpID_0Corel-Layer"/>
  <g id="_218244088">
   <path class="fil0" d="M39044 61895c-2753,1065 -8258,2606 -14653,2606 -7193,0 -13114,-1835 -17761,-6276 -4085,-3937 -6631,-10302 -6631,-17673 0,-14179 9798,-24510 25724,-24510 5506,0 9858,1183 11900,2190l-1539 5003c-2545,-1183 -5713,-2042 -10508,-2042 -11545,0 -19094,7193 -19094,19094 0,12047 7193,19182 18324,19182 4026,0 6749,-562 8170,-1273l0 -14150 -9591 0 0 -4944 15630 0 0 22824 30 -30z"/>
   <path class="fil1" d="M51181 42475c119,7933 5121,11190 10983,11190 4204,0 6778,-739 8940,-1598l1065 4145c-2072,918 -5654,2072 -10805,2072 -9858,0 -15837,-6601 -15837,-16252 0,-9798 5803,-17465 15187,-17465 10508,0 13261,9266 13261,15187 0,1213 -59,2131 -208,2782l-22586 -59zm17111 -4204c59,-3671 -1540,-9532 -8052,-9532 -6009,0 -8526,5447 -9000,9532l17052 0z"/>
   <path class="fil1" d="M80429 51682c1806,1065 4854,2280 7785,2280 4204,0 6187,-2072 6187,-4795 0,-2783 -1657,-4323 -5920,-5921 -5862,-2132 -8584,-5269 -8584,-9118 0,-5210 4263,-9443 11130,-9443 3256,0 6128,859 7845,1984l-1391 4204c-1273,-741 -3612,-1865 -6601,-1865 -3463,0 -5328,2013 -5328,4410 0,2724 1865,3937 6069,5536 5535,2072 8466,4854 8466,9739 0,5713 -4470,9709 -11989,9709 -3522,0 -6808,-947 -9058,-2249l1391 -4411 0 -59z"/>
   <path class="fil1" d="M114678 17639l0 7727 8378 0 0 4469 -8378 0 0 17376c0,3997 1124,6276 4381,6276 1599,0 2546,-148 3404,-415l267 4470c-1124,384 -2930,798 -5210,798 -2724,0 -4944,-947 -6335,-2457 -1598,-1806 -2249,-4677 -2249,-8466l0 -17584 -5003 0 0 -4469 5003 0 0 -5921 5743 -1806z"/>
   <path class="fil1" d="M132440 19445c-2191,0 -3671,-1747 -3671,-3789 0,-2072 1539,-3730 3789,-3730 2280,0 3730,1658 3730,3730 0,2072 -1450,3789 -3789,3789l-59 0zm-2812 5921l5861 0 0 32237 -5861 0 0 -32237zm0 32237l0 -32237m0 32237l0 0 0 0z"/>
   <path class="fil1" d="M158341 58342c-8643,0 -15452,-6393 -15452,-16577 0,-10775 7134,-17111 15985,-17111 9266,0 15511,6720 15511,16519 0,11988 -8319,17169 -15985,17169l-59 0zm207 -4381c5595,0 9798,-5269 9798,-12581 0,-5447 -2722,-12314 -9650,-12314 -6868,0 -9858,6393 -9858,12521 0,7046 3996,12404 9650,12404l59 0 0 -30z"/>
   <path class="fil1" d="M181786 34097c0,-3404 -59,-6069 -267,-8732l5211 0 325 5269 149 0c1598,-2989 5328,-5980 10656,-5980 4470,0 11398,2665 11398,13736l0 19241 -5862 0 0 -18591c0,-5180 -1924,-9592 -7460,-9592 -3789,0 -6778,2724 -7874,5980 -266,741 -384,1806 -384,2724l0 19449 -5862 0 0 -23505 -30 0z"/>
   <polygon class="fil0" points="238001,35193 235248,35193 235248,3252 214941,3252 214941,19889 189158,19889 189158,3252 168820,3252 168820,19889 143037,19889 143037,3252 122730,3252 122730,18527 119977,18527 119977,498 145790,498 145790,17165 166098,17165 166098,498 191881,498 191881,17165 212188,17165 212188,498 238001,498 "/>
  </g>
 </g>
</svg>
